<svg xmlns="http://www.w3.org/2000/svg" viewBox="0 0 560 686" role="img" aria-label="Mapa Wielkopolski z zaznaczonymi miastami, w których działa ZabieramyTo">
  <path d="M192.6,40.6 L193.4,38.2 L195.3,35.4 L199.1,34.0 L200.2,37.6 L199.2,40.6 L199.7,42.4 L201.7,44.4 L202.6,47.4 L206.3,52.0 L205.9,54.4 L207.5,57.5 L207.4,59.8 L210.0,60.0 L212.0,58.2 L215.2,59.7 L215.9,62.6 L214.1,64.0 L216.8,66.9 L219.9,67.9 L224.6,66.2 L228.3,61.4 L236.1,64.2 L239.2,65.0 L240.5,63.9 L246.8,63.5 L251.2,64.2 L254.3,62.8 L256.7,63.6 L258.8,65.8 L260.8,65.7 L260.2,68.7 L263.0,68.6 L263.4,71.1 L266.9,73.4 L268.7,72.5 L272.2,72.6 L272.8,74.0 L271.6,79.4 L266.4,83.1 L266.1,83.2 L264.0,87.2 L258.6,90.7 L258.7,95.1 L257.2,97.4 L251.7,101.0 L252.3,103.5 L255.2,105.7 L258.5,107.3 L263.1,108.8 L264.4,108.4 L267.6,113.2 L268.2,115.9 L271.9,118.5 L273.3,122.9 L275.3,124.5 L277.1,124.3 L279.8,128.0 L277.7,131.1 L278.3,133.2 L276.1,134.4 L276.7,137.0 L274.9,138.0 L269.6,138.0 L268.7,138.9 L264.1,140.2 L263.7,141.1 L266.2,144.2 L264.8,148.3 L264.8,151.4 L266.3,153.2 L264.8,155.3 L272.6,158.0 L271.8,160.7 L267.2,161.2 L268.4,164.5 L267.8,171.8 L264.5,174.2 L262.9,174.0 L263.9,180.5 L264.8,182.6 L264.2,188.3 L261.7,188.3 L259.6,194.2 L261.9,195.4 L261.9,199.2 L269.5,199.4 L273.4,197.2 L275.8,200.0 L278.0,200.8 L282.6,204.8 L287.7,206.1 L288.7,209.3 L291.7,210.4 L290.4,212.9 L291.8,217.9 L291.7,220.6 L293.0,227.3 L290.9,228.1 L291.3,232.1 L290.8,233.7 L292.1,236.2 L289.6,240.4 L290.1,242.8 L288.6,244.9 L283.1,244.6 L282.0,242.1 L279.0,245.3 L276.5,245.3 L275.4,248.3 L275.3,250.7 L276.9,253.2 L280.0,253.4 L284.4,257.5 L287.2,258.5 L284.1,270.4 L289.1,269.4 L289.9,272.1 L291.4,271.9 L295.5,268.2 L297.4,268.5 L300.5,266.8 L301.0,264.5 L305.9,264.9 L307.8,263.6 L309.7,267.5 L308.4,270.7 L309.5,274.4 L308.2,276.6 L310.6,279.0 L315.2,278.1 L314.9,280.1 L315.9,284.1 L315.0,288.6 L319.9,287.0 L325.8,282.0 L320.9,280.2 L324.3,277.5 L327.5,277.9 L328.4,280.5 L330.0,281.1 L331.0,277.4 L335.1,278.9 L337.1,281.5 L339.9,283.0 L344.7,282.9 L349.5,287.9 L349.5,291.2 L348.4,293.4 L350.8,294.6 L355.0,295.1 L355.0,297.4 L357.2,297.0 L359.1,298.8 L361.5,296.8 L361.1,303.7 L362.6,304.1 L363.3,300.8 L366.3,300.8 L371.7,303.7 L372.4,301.6 L377.0,301.2 L378.7,304.8 L376.5,306.4 L376.3,309.1 L378.6,310.8 L381.3,310.1 L381.4,312.4 L383.3,312.9 L385.8,311.8 L392.9,313.9 L392.5,317.4 L395.5,318.3 L399.1,317.1 L401.4,318.7 L406.4,314.2 L408.3,313.2 L414.0,308.8 L413.2,305.0 L415.1,303.6 L420.0,306.3 L418.5,313.1 L420.2,317.8 L419.7,319.6 L425.0,320.6 L425.5,319.1 L431.5,319.8 L431.3,316.4 L433.0,316.0 L435.8,313.3 L440.8,314.4 L444.0,318.0 L445.7,317.9 L446.2,320.6 L447.5,322.6 L450.0,323.4 L452.0,322.8 L452.9,324.8 L455.5,324.8 L459.1,326.1 L459.2,329.7 L460.3,333.0 L463.0,332.7 L463.9,335.6 L463.7,338.3 L468.1,338.2 L471.2,343.2 L471.3,344.7 L474.5,347.8 L474.0,351.3 L474.7,354.6 L478.1,354.2 L479.4,352.4 L483.4,349.9 L486.5,352.1 L489.5,350.8 L491.6,348.0 L497.9,346.5 L497.7,343.6 L500.3,343.5 L499.1,338.6 L502.1,340.4 L504.2,343.4 L506.3,343.7 L507.9,346.9 L505.9,347.7 L512.0,350.6 L511.6,352.9 L515.1,354.8 L517.8,354.6 L517.5,358.1 L516.2,358.8 L516.5,362.7 L517.6,363.6 L516.0,369.7 L518.2,369.0 L524.9,369.7 L525.7,370.8 L526.0,376.5 L522.7,377.5 L523.0,381.3 L524.1,385.2 L522.3,386.8 L518.6,383.7 L513.8,383.1 L508.1,384.9 L505.5,385.2 L503.6,387.9 L500.6,387.0 L498.7,390.2 L498.4,396.3 L497.3,399.7 L497.7,403.1 L500.7,405.4 L502.3,404.3 L503.4,406.3 L502.6,409.7 L500.6,410.0 L499.8,416.0 L493.9,415.9 L491.1,414.1 L487.5,415.8 L487.2,417.9 L485.4,419.7 L483.1,418.9 L479.3,420.5 L475.9,418.9 L474.3,416.7 L470.0,419.5 L468.9,424.7 L468.9,427.4 L470.7,430.2 L470.3,432.1 L471.6,434.6 L469.1,436.5 L471.4,440.3 L471.4,443.0 L468.8,442.5 L470.0,445.4 L472.1,444.3 L472.8,450.5 L476.5,452.7 L473.7,457.6 L471.9,459.2 L471.9,461.4 L469.6,465.9 L466.0,467.8 L466.6,470.9 L465.4,472.8 L464.8,478.3 L458.9,477.2 L458.0,475.5 L456.2,476.3 L453.6,475.4 L450.9,472.1 L446.8,473.0 L444.3,472.7 L440.2,475.4 L438.3,473.5 L438.0,470.5 L434.6,471.6 L432.8,471.4 L431.6,474.5 L431.7,478.6 L429.0,477.1 L427.9,477.5 L428.6,484.1 L427.5,485.3 L423.5,485.7 L426.4,490.2 L426.9,492.2 L425.3,493.9 L424.3,497.0 L425.6,499.2 L425.2,501.5 L423.3,501.5 L423.9,507.8 L421.4,508.1 L416.8,512.4 L415.5,517.5 L419.3,519.5 L417.7,523.9 L415.1,524.1 L417.4,527.8 L417.4,528.0 L415.1,530.4 L415.0,532.0 L418.7,532.2 L417.7,534.4 L418.1,537.8 L416.9,540.8 L417.6,545.8 L416.1,546.6 L416.3,548.8 L419.1,552.0 L419.5,561.9 L416.4,564.2 L415.0,568.3 L413.3,570.7 L413.3,573.4 L411.2,575.8 L406.7,573.5 L400.7,571.2 L396.6,568.1 L390.8,570.7 L393.4,572.6 L394.2,575.1 L393.1,577.3 L393.4,580.4 L391.0,583.9 L385.0,582.7 L383.3,586.0 L382.9,590.1 L381.6,590.9 L377.5,589.9 L373.9,592.8 L376.7,594.9 L376.6,598.6 L379.6,602.3 L379.7,608.5 L378.2,609.6 L380.1,610.8 L378.2,612.6 L379.2,614.5 L381.6,612.4 L383.3,613.6 L385.6,613.6 L385.2,611.4 L388.1,611.8 L387.7,618.7 L388.8,619.9 L389.5,623.7 L389.3,624.2 L387.4,626.1 L387.0,631.0 L388.6,631.1 L387.1,635.8 L383.2,635.9 L381.6,636.6 L379.0,639.8 L376.8,639.6 L375.0,637.3 L374.1,642.0 L368.7,645.8 L365.2,646.8 L354.0,651.2 L350.7,650.3 L349.0,651.6 L346.0,652.4 L342.9,650.0 L336.8,649.0 L335.1,644.9 L338.2,642.9 L340.9,635.8 L339.6,631.8 L337.5,630.7 L335.1,632.0 L332.6,630.5 L330.0,629.6 L326.9,625.1 L326.6,620.6 L325.1,618.7 L324.9,615.2 L326.2,609.4 L326.0,607.1 L328.3,604.7 L326.8,602.1 L328.1,600.9 L325.0,597.9 L325.0,593.6 L322.8,592.2 L321.9,590.5 L320.0,590.6 L319.2,588.7 L320.8,587.6 L321.5,584.0 L323.2,583.9 L324.0,580.6 L326.3,581.0 L326.7,578.9 L325.7,577.1 L322.0,575.2 L320.6,576.2 L321.4,579.4 L319.0,580.8 L313.9,576.8 L312.8,578.2 L309.7,575.5 L307.5,576.0 L305.7,575.1 L304.3,578.4 L302.2,578.2 L299.4,579.4 L297.0,578.1 L295.0,575.5 L296.6,572.1 L296.1,570.2 L292.0,565.5 L293.3,563.7 L291.9,562.2 L292.4,560.1 L291.0,556.0 L292.2,552.9 L297.0,552.2 L299.7,549.2 L300.0,544.5 L299.7,540.2 L297.9,539.4 L297.3,536.0 L292.2,534.6 L291.8,531.2 L287.0,528.1 L284.7,525.9 L279.8,524.2 L276.9,524.8 L272.1,523.7 L268.0,521.8 L263.8,520.6 L258.1,521.5 L253.8,521.7 L250.7,524.0 L246.9,525.0 L245.8,529.5 L246.9,532.4 L246.2,534.7 L246.8,538.5 L242.8,537.9 L240.3,539.5 L233.6,540.6 L231.1,538.0 L224.6,540.3 L225.4,543.1 L223.8,543.9 L221.8,542.8 L218.0,543.4 L216.1,544.5 L212.3,544.1 L211.9,545.5 L209.4,545.6 L208.5,543.6 L204.3,543.7 L202.6,542.3 L199.6,537.4 L198.3,536.8 L192.9,537.1 L190.1,538.1 L188.3,537.6 L187.1,535.4 L184.7,534.2 L185.4,531.3 L181.3,528.9 L180.4,525.5 L181.9,524.6 L183.0,522.2 L180.9,521.3 L176.9,521.3 L174.5,520.6 L167.9,520.8 L168.4,518.6 L163.2,518.2 L161.6,516.2 L162.1,511.9 L166.7,509.6 L168.0,506.0 L164.8,504.7 L162.5,502.6 L161.7,499.5 L162.9,497.2 L161.0,496.1 L158.6,497.1 L155.9,496.8 L153.0,495.3 L152.4,491.3 L147.5,492.0 L147.7,488.5 L138.8,488.0 L133.5,486.6 L128.7,487.4 L124.6,485.8 L126.5,482.6 L125.4,478.9 L126.3,474.6 L123.2,474.3 L124.3,472.5 L120.0,469.8 L116.7,466.5 L119.1,464.2 L114.5,462.7 L108.5,459.4 L107.4,460.7 L104.4,459.4 L103.2,462.4 L101.0,465.3 L98.9,466.8 L96.7,466.3 L95.6,463.1 L92.1,463.2 L88.3,460.7 L82.8,460.5 L83.2,458.6 L87.5,453.3 L85.9,451.8 L86.4,448.9 L85.4,447.0 L87.4,446.3 L86.8,441.9 L85.0,437.2 L82.8,436.0 L78.7,439.4 L76.1,440.8 L68.6,439.7 L67.5,436.3 L63.3,435.7 L61.9,430.9 L62.1,427.0 L66.3,426.7 L65.9,423.0 L67.9,422.1 L65.3,420.2 L65.4,419.0 L62.6,417.0 L62.3,415.4 L58.4,413.8 L55.4,418.5 L52.2,416.6 L48.9,413.9 L46.4,414.3 L42.4,408.3 L44.8,407.8 L45.5,405.9 L48.6,403.6 L49.9,397.5 L49.8,395.8 L46.1,394.3 L46.7,392.3 L46.6,387.3 L44.8,383.6 L46.5,380.1 L45.3,371.7 L49.5,366.4 L49.1,363.0 L51.1,360.1 L49.7,355.9 L50.6,353.8 L49.5,349.9 L50.7,347.8 L50.5,345.1 L52.4,342.5 L51.7,339.7 L47.9,339.2 L46.5,337.7 L43.9,337.6 L41.6,333.4 L39.8,331.7 L38.1,327.8 L41.5,325.9 L42.4,327.5 L42.1,329.6 L44.3,330.7 L49.0,329.3 L48.6,328.0 L51.6,327.0 L51.2,321.8 L50.1,317.1 L47.5,313.6 L46.8,311.6 L42.7,307.0 L46.1,303.4 L42.3,298.1 L41.2,297.8 L41.7,294.1 L36.9,288.5 L35.2,285.4 L36.6,283.1 L36.6,280.9 L34.0,280.7 L35.0,277.0 L34.8,274.9 L39.6,273.4 L39.4,270.7 L37.5,266.8 L36.8,263.6 L39.3,263.3 L43.0,264.1 L50.1,262.0 L53.4,262.0 L55.2,260.0 L58.9,258.6 L59.5,254.9 L58.6,251.3 L56.2,245.3 L58.0,244.7 L57.4,241.1 L52.8,239.9 L51.3,238.3 L52.6,232.8 L55.1,231.4 L55.7,233.9 L59.9,230.9 L59.1,228.3 L61.3,228.3 L63.3,227.1 L62.9,225.2 L64.1,221.8 L62.3,217.5 L63.8,214.8 L64.1,209.0 L61.2,203.6 L61.5,200.3 L60.6,198.6 L60.2,192.5 L60.8,187.4 L60.5,183.2 L61.5,182.9 L68.6,184.8 L70.5,184.3 L73.7,186.0 L75.2,187.7 L79.4,189.4 L84.4,190.0 L87.5,189.6 L94.6,184.8 L101.0,183.4 L104.3,181.7 L107.2,181.0 L110.7,183.7 L114.0,184.0 L115.0,180.9 L121.0,173.0 L118.3,165.7 L120.3,165.2 L122.2,161.8 L124.9,161.2 L126.0,157.0 L125.0,154.7 L126.1,153.3 L129.9,156.9 L131.1,155.0 L132.9,155.5 L134.4,153.1 L137.6,151.7 L138.7,153.1 L141.0,153.4 L141.2,151.1 L144.1,147.9 L145.7,142.9 L145.4,141.1 L147.7,140.3 L149.7,137.4 L152.4,136.9 L155.2,137.8 L155.3,140.2 L157.3,142.4 L161.0,139.7 L160.6,136.3 L158.9,136.3 L160.9,129.9 L163.3,125.9 L165.0,125.4 L166.9,122.6 L172.7,120.5 L168.5,118.4 L167.4,115.5 L164.2,115.2 L159.3,109.0 L155.0,109.3 L152.0,107.1 L150.3,107.4 L148.6,106.0 L145.9,101.9 L144.8,104.0 L142.3,101.8 L141.0,99.6 L137.4,98.9 L137.6,96.7 L136.1,95.0 L132.7,83.1 L131.6,81.3 L134.3,74.6 L138.4,77.4 L139.6,79.0 L145.8,77.0 L152.9,76.9 L153.5,75.7 L162.0,75.6 L167.3,70.5 L170.0,67.4 L172.2,67.9 L173.7,65.4 L173.5,60.8 L174.7,58.4 L174.7,55.5 L176.6,55.6 L177.5,53.4 L176.5,51.5 L177.1,48.5 L179.5,43.3 L179.2,41.7 L187.5,40.1 L187.6,37.6 L189.3,37.0 L191.6,41.2 L192.6,40.6 Z" fill="#e8811f" stroke="#f0ece1" stroke-width="3" stroke-linejoin="round" opacity="0.96"/>
    <circle cx="203.9" cy="336.8" r="9" fill="#132a42" stroke="#f0ece1" stroke-width="3"/>
  <text x="213.9" y="326.8" text-anchor="start" font-size="24" font-weight="700" fill="#132a42" font-family="Georgia, serif">Poznań</text>
  <circle cx="153.1" cy="287.0" r="5.5" fill="#132a42" stroke="#f0ece1" stroke-width="2"/>
  <text x="143.1" y="279.0" text-anchor="end" font-size="15.5" font-weight="600" fill="#132a42" font-family="Arial, sans-serif">Szamotuły</text>
  <circle cx="187.6" cy="278.5" r="5.5" fill="#132a42" stroke="#f0ece1" stroke-width="2"/>
  <text x="189.6" y="266.5" text-anchor="middle" font-size="15.5" font-weight="600" fill="#132a42" font-family="Arial, sans-serif">Oborniki</text>
  <circle cx="301.2" cy="305.6" r="5.5" fill="#132a42" stroke="#f0ece1" stroke-width="2"/>
  <text x="311.2" y="297.6" text-anchor="start" font-size="15.5" font-weight="600" fill="#132a42" font-family="Arial, sans-serif">Gniezno</text>
  <circle cx="298.6" cy="356.4" r="5.5" fill="#132a42" stroke="#f0ece1" stroke-width="2"/>
  <text x="309.6" y="360.4" text-anchor="start" font-size="15.5" font-weight="600" fill="#132a42" font-family="Arial, sans-serif">Września</text>
  <circle cx="225.8" cy="335.4" r="5.5" fill="#132a42" stroke="#f0ece1" stroke-width="2"/>
  <text x="236.8" y="349.4" text-anchor="start" font-size="15.5" font-weight="600" fill="#132a42" font-family="Arial, sans-serif">Swarzędz</text>
  <circle cx="228.4" cy="375.3" r="5.5" fill="#132a42" stroke="#f0ece1" stroke-width="2"/>
  <text x="239.4" y="379.3" text-anchor="start" font-size="15.5" font-weight="600" fill="#132a42" font-family="Arial, sans-serif">Kórnik</text>
  <circle cx="192.0" cy="375.6" r="5.5" fill="#132a42" stroke="#f0ece1" stroke-width="2"/>
  <text x="181.0" y="381.6" text-anchor="end" font-size="15.5" font-weight="600" fill="#132a42" font-family="Arial, sans-serif">Mosina</text>
  <circle cx="217.3" cy="413.8" r="5.5" fill="#132a42" stroke="#f0ece1" stroke-width="2"/>
  <text x="226.3" y="423.8" text-anchor="start" font-size="15.5" font-weight="600" fill="#132a42" font-family="Arial, sans-serif">Śrem</text>
  <circle cx="198.7" cy="351.7" r="5.5" fill="#132a42" stroke="#f0ece1" stroke-width="2"/>
  <text x="187.7" y="353.7" text-anchor="end" font-size="15.5" font-weight="600" fill="#132a42" font-family="Arial, sans-serif">Luboń</text>
</svg>